<?xml version="1.0" ?><!DOCTYPE svg  PUBLIC '-//W3C//DTD SVG 1.1//EN'  'http://www.w3.org/Graphics/SVG/1.1/DTD/svg11.dtd'><svg height="98px" id="Capa_1" style="enable-background:new 0 0 58 98;" version="1.1" viewBox="0 0 58 98" width="58px" xml:space="preserve" xmlns="http://www.w3.org/2000/svg" xmlns:xlink="http://www.w3.org/1999/xlink"><g><path d="M48,0H10C4.5,0,0,4.5,0,10v78c0,5.5,4.5,10,10,10h38c5.5,0,10-4.5,10-10V10C58,4.5,53.5,0,48,0z M29,94   c-3.865,0-7-2.238-7-5c0-2.762,3.135-5,7-5c3.864,0,7,2.238,7,5C36,91.763,32.864,94,29,94z M50,79H8V13h42V79z"/></g><g/><g/><g/><g/><g/><g/><g/><g/><g/><g/><g/><g/><g/><g/><g/></svg>